<svg xmlns="http://www.w3.org/2000/svg" viewBox="0 0 130.4 130.4" enable-background="new 0 0 130.4 130.4"><style type="text/css">.st0{fill:#657EE4;}</style><path id="Icon_awesome-instagram" class="st0" d="M65.2 31.8c-18.5 0-33.5 15-33.5 33.5s15 33.5 33.5 33.5 33.5-15 33.5-33.5c0-18.4-14.9-33.4-33.3-33.5h-.2zm0 55.1c-12 0-21.7-9.7-21.7-21.7s9.7-21.7 21.7-21.7 21.8 9.7 21.8 21.7-9.8 21.7-21.8 21.7zm42.6-56.5c0 4.3-3.5 7.8-7.8 7.8s-7.8-3.5-7.8-7.8 3.5-7.8 7.8-7.8 7.8 3.5 7.8 7.8zm22.1 7.9c.2-10.1-3.6-20-10.5-27.3-7.4-6.9-17.2-10.7-27.3-10.5-10.8-.6-43-.6-53.8 0-10.1-.2-19.9 3.5-27.3 10.4-7 7.4-10.7 17.2-10.5 27.4-.6 10.8-.6 43 0 53.8-.3 10.1 3.5 19.9 10.5 27.3 7.4 6.9 17.2 10.7 27.3 10.5 10.8.6 43 .6 53.8 0 10.1.2 20-3.6 27.3-10.5 6.9-7.4 10.7-17.2 10.5-27.3.7-10.8.7-43 0-53.8zm-13.8 65.3c-2.2 5.7-6.7 10.2-12.4 12.4-8.6 3.4-28.9 2.6-38.4 2.6s-29.9.8-38.4-2.6c-5.7-2.2-10.2-6.7-12.4-12.4-3.4-8.6-2.6-28.9-2.6-38.4s-.9-29.9 2.5-38.4c2.2-5.7 6.7-10.2 12.4-12.4 8.6-3.4 29-2.6 38.4-2.6s29.9-.8 38.4 2.6c5.7 2.2 10.2 6.7 12.4 12.4 3.4 8.6 2.6 28.9 2.6 38.4s.9 29.9-2.5 38.4z"/></svg>