<?xml version="1.0" encoding="utf-8"?>
<!-- Generator: Adobe Illustrator 24.2.3, SVG Export Plug-In . SVG Version: 6.00 Build 0)  -->
<svg version="1.1" id="Layer_1" xmlns="http://www.w3.org/2000/svg" xmlns:xlink="http://www.w3.org/1999/xlink" x="0px" y="0px"
	 viewBox="0 0 130.4 130.4" style="enable-background:new 0 0 130.4 130.4;" xml:space="preserve">
<style type="text/css">
	.st0{fill:#657EE4;}
</style>
<path id="Icon_awesome-instagram" class="st0" d="M65.2,31.8c-18.5,0-33.5,15-33.5,33.5s15,33.5,33.5,33.5s33.5-15,33.5-33.5
	c0-18.4-14.9-33.4-33.3-33.5C65.3,31.8,65.3,31.8,65.2,31.8z M65.2,86.9c-12,0-21.7-9.7-21.7-21.7s9.7-21.7,21.7-21.7
	S87,53.2,87,65.2l0,0C87,77.2,77.2,86.9,65.2,86.9z M107.8,30.4c0,4.3-3.5,7.8-7.8,7.8c-4.3,0-7.8-3.5-7.8-7.8s3.5-7.8,7.8-7.8l0,0
	C104.3,22.6,107.8,26.1,107.8,30.4C107.8,30.4,107.8,30.4,107.8,30.4L107.8,30.4z M129.9,38.3c0.2-10.1-3.6-20-10.5-27.3
	C112,4.1,102.2,0.3,92.1,0.5c-10.8-0.6-43-0.6-53.8,0C28.2,0.3,18.4,4,11,10.9C4,18.3,0.3,28.1,0.5,38.3c-0.6,10.8-0.6,43,0,53.8
	C0.2,102.2,4,112,11,119.4c7.4,6.9,17.2,10.7,27.3,10.5c10.8,0.6,43,0.6,53.8,0c10.1,0.2,20-3.6,27.3-10.5
	c6.9-7.4,10.7-17.2,10.5-27.3C130.6,81.3,130.6,49.1,129.9,38.3L129.9,38.3z M116.1,103.6c-2.2,5.7-6.7,10.2-12.4,12.4
	c-8.6,3.4-28.9,2.6-38.4,2.6s-29.9,0.8-38.4-2.6c-5.7-2.2-10.2-6.7-12.4-12.4c-3.4-8.6-2.6-28.9-2.6-38.4S11,35.3,14.4,26.8
	c2.2-5.7,6.7-10.2,12.4-12.4c8.6-3.4,29-2.6,38.4-2.6s29.9-0.8,38.4,2.6c5.7,2.2,10.2,6.7,12.4,12.4c3.4,8.6,2.6,28.9,2.6,38.4
	S119.5,95.1,116.1,103.6z"/>
</svg>
