<?xml version="1.0" encoding="utf-8"?>
<!-- Generator: Adobe Illustrator 24.2.3, SVG Export Plug-In . SVG Version: 6.00 Build 0)  -->
<svg version="1.1" id="Layer_1" xmlns="http://www.w3.org/2000/svg" xmlns:xlink="http://www.w3.org/1999/xlink" x="0px" y="0px"
	 viewBox="0 0 149 121.1" style="enable-background:new 0 0 149 121.1;" xml:space="preserve">
<style type="text/css">
	.st0{fill:#657EE4;}
</style>
<path id="Icon_awesome-twitter" class="st0" d="M133.7,30.2c0.1,1.3,0.1,2.6,0.1,4c0.3,47.6-38,86.5-85.7,86.9c-0.4,0-0.8,0-1.2,0
	c-16.6,0-32.9-4.7-46.9-13.7c2.4,0.3,4.9,0.4,7.4,0.4c13.7,0,27.1-4.6,37.9-13c-13.1-0.2-24.5-8.7-28.6-21.2
	c1.9,0.3,3.8,0.5,5.8,0.5c2.7,0,5.4-0.4,8-1C16.3,70.1,6,57.5,6,43v-0.4c4.2,2.4,9,3.7,13.8,3.9c-13.5-9-17.6-26.9-9.5-40.8
	c15.5,19.1,38.4,30.7,63,31.9c-0.5-2.3-0.7-4.6-0.8-7C72.5,13.7,86.2,0,103.1,0c8.5,0,16.6,3.5,22.4,9.7c6.8-1.3,13.4-3.8,19.4-7.4
	c-2.3,7.1-7,13-13.4,16.8c6.1-0.7,12-2.3,17.6-4.7C144.8,20.5,139.6,25.8,133.7,30.2L133.7,30.2z"/>
</svg>
