<svg xmlns="http://www.w3.org/2000/svg" viewBox="0 0 149 121.1" enable-background="new 0 0 149 121.1"><style type="text/css">.st0{fill:#657EE4;}</style><path id="Icon_awesome-twitter" class="st0" d="M133.7 30.2c.1 1.3.1 2.6.1 4 .3 47.6-38 86.5-85.7 86.9h-1.2c-16.6 0-32.9-4.7-46.9-13.7 2.4.3 4.9.4 7.4.4 13.7 0 27.1-4.6 37.9-13-13.1-.2-24.5-8.7-28.6-21.2 1.9.3 3.8.5 5.8.5 2.7 0 5.4-.4 8-1-14.2-3-24.5-15.6-24.5-30.1v-.4c4.2 2.4 9 3.7 13.8 3.9-13.5-9-17.6-26.9-9.5-40.8 15.5 19.1 38.4 30.7 63 31.9-.5-2.3-.7-4.6-.8-7 0-16.9 13.7-30.6 30.6-30.6 8.5 0 16.6 3.5 22.4 9.7 6.8-1.3 13.4-3.8 19.4-7.4-2.3 7.1-7 13-13.4 16.8 6.1-.7 12-2.3 17.6-4.7-4.3 6.1-9.5 11.4-15.4 15.8z"/></svg>