<?xml version="1.0" encoding="utf-8"?>
<!-- Generator: Adobe Illustrator 24.2.3, SVG Export Plug-In . SVG Version: 6.00 Build 0)  -->
<svg version="1.1" id="Layer_1" xmlns="http://www.w3.org/2000/svg" xmlns:xlink="http://www.w3.org/1999/xlink" x="0px" y="0px"
	 viewBox="0 0 137.9 130.4" style="enable-background:new 0 0 137.9 130.4;" xml:space="preserve">
<style type="text/css">
	.st0{fill:#657EE4;}
</style>
<path id="Icon_awesome-reddit-alien" class="st0" d="M122.5,49.9c-4.1,0-8.1,1.7-11,4.6c-11.9-7.8-25.7-12.1-39.9-12.3l8.1-36.3
	l25.6,5.8c0,6.3,5.1,11.4,11.4,11.4c6.4,0,11.6-5.1,11.6-11.5c0-6.4-5.1-11.6-11.5-11.6c-4.4,0-8.4,2.4-10.4,6.4L78.1,0.1
	c-1.5-0.3-2.9,0.6-3.2,2.1l-8.8,40C52,42.6,38.2,46.9,26.4,54.7c-5.9-6.1-15.6-6.3-21.7-0.5s-6.3,15.6-0.5,21.7
	c1.2,1.3,2.7,2.4,4.3,3.2c-0.5,2.4-0.8,4.8-0.8,7.2c0,24.4,27.5,44.1,61.2,44.1c33.9,0,61.3-19.8,61.3-44.1c0-2.5-0.3-4.9-0.9-7.3
	c7.6-3.8,10.6-13,6.8-20.6C133.7,53.2,128.3,49.9,122.5,49.9z M32.1,80.6c0-6.3,5.1-11.5,11.4-11.6C49.8,69,55,74.1,55,80.5
	C55.1,86.8,50,92,43.6,92C37.3,92,32.1,86.9,32.1,80.6z M94.4,107.8c-10.6,10.6-40.5,10.6-51.1,0c-1.1-1-1.2-2.7-0.2-3.8
	c0.1-0.1,0.1-0.1,0.2-0.2c1.1-1,2.8-1,3.8,0c8.1,8.3,34.9,8.4,43.4,0c1.1-1,2.8-1,3.8,0c1.1,1,1.2,2.7,0.2,3.8
	C94.6,107.7,94.5,107.8,94.4,107.8L94.4,107.8z M94.2,92c-6.3,0-11.4-5.2-11.4-11.6c0-6.3,5.2-11.4,11.6-11.4
	c6.3,0,11.4,5.2,11.4,11.5c0,6.3-5.1,11.4-11.4,11.4C94.3,92,94.2,92,94.2,92L94.2,92z"/>
</svg>
