<?xml version="1.0" encoding="utf-8"?>
<!-- Generator: Adobe Illustrator 24.2.3, SVG Export Plug-In . SVG Version: 6.00 Build 0)  -->
<svg version="1.1" id="Layer_1" xmlns="http://www.w3.org/2000/svg" xmlns:xlink="http://www.w3.org/1999/xlink" x="0px" y="0px"
	 viewBox="0 0 293.1 40.5" style="enable-background:new 0 0 293.1 40.5;" xml:space="preserve">
<style type="text/css">
	.st0{fill:#FFFFFF;}
</style>
<g id="Group_5609" transform="translate(39.988 6.067)">
	<g id="Group_6109" transform="translate(53.602 0.991)">
		<path id="Path_5379" class="st0" d="M-31.2-1.9H-40v32.5h5.6V19.1h3.3c3.2,0.2,6.4-0.7,9-2.5c2.5-2,3.9-5.1,3.7-8.2
			C-18.4,1.7-22.9-1.9-31.2-1.9z M-34.4,2.7h3.2c4.8,0,7,1.8,7,5.7c0.2,1.8-0.5,3.6-1.9,4.8c-1.6,1-3.4,1.4-5.2,1.2h-3.1L-34.4,2.7z
			"/>
		<path id="Path_5380" class="st0" d="M-2.8,4.9c-2.5,0-4.8,1.4-6,3.6l-0.3-3.1h-4.8v25.2h5.4V16.4c1-4.3,2.5-6.2,5.1-6.2
			c0.7,0,1.3,0.1,1.9,0.3l0.6,0.2l1-5.3l-0.6-0.1C-1.2,5-2,4.9-2.8,4.9z"/>
		<path id="Path_5381" class="st0" d="M12.8,4.9C9.6,4.8,6.5,6.1,4.4,8.6c-3.9,5.7-3.9,13.2,0,18.9c4.3,4.6,11.5,4.8,16.1,0.6
			c0.2-0.2,0.4-0.4,0.7-0.7c3.9-5.7,3.9-13.2,0-18.9C19.1,6.1,16,4.7,12.8,4.9z M12.8,26.5c-3.7,0-5.6-2.8-5.6-8.5
			c-0.2-2.3,0.4-4.6,1.5-6.6c0.9-1.3,2.5-2.1,4.1-2c1.6-0.1,3.1,0.6,4,2c1.1,2,1.6,4.3,1.5,6.5C18.3,23.7,16.5,26.5,12.8,26.5z"/>
		<path id="Path_5382" class="st0" d="M40.5,25.5c-0.8,0.6-1.8,0.9-2.8,1c-1.4,0-2.2-0.5-2.2-2.9V9.9h5.1l0.6-4.5h-5.8v-6L30,0.1
			v5.3h-4.2v4.5H30v13.8c-0.1,2,0.6,4,1.9,5.5c1.4,1.3,3.3,2,5.2,1.9c2,0,4-0.6,5.7-1.7l0.5-0.3l-2.2-3.9L40.5,25.5z"/>
		<path id="Path_5383" class="st0" d="M55.3,4.9c-3.2-0.1-6.3,1.3-8.4,3.7c-3.9,5.7-3.9,13.2,0,18.9c4.3,4.6,11.5,4.9,16.1,0.6
			c0,0,0,0,0,0c0.2-0.2,0.4-0.4,0.7-0.7c3.9-5.7,3.9-13.2,0-18.9C61.5,6.1,58.5,4.7,55.3,4.9z M55.2,26.5c-3.7,0-5.5-2.8-5.5-8.5
			c-0.2-2.3,0.4-4.6,1.5-6.6c0.9-1.3,2.5-2.1,4.1-2c1.6-0.1,3.1,0.6,4,2c1.1,2,1.6,4.3,1.5,6.5C60.8,23.7,59,26.5,55.2,26.5
			L55.2,26.5z"/>
		<path id="Path_5384" class="st0" d="M84.1,4.9c-1.6,0-3.2,0.4-4.5,1.2c-0.9,0.5-1.7,1.1-2.3,1.9l-0.3-2.6h-4.8v25.2h5.4V13.2
			c1.7-2.6,3.3-3.8,5.5-3.8c1.9,0,3.1,0.7,3.1,4v17.2h5.4V12.8c0.1-2.1-0.6-4.2-2-5.8C88.1,5.6,86.1,4.8,84.1,4.9z"/>
		<path id="Path_5385" class="st0" d="M117.4,1.1c-3.3-2.2-7.2-3.3-11.2-3H99v32.5h8.1c3.7,0.2,7.3-1,10.3-3.3
			c3.6-3.4,5.5-8.2,5-13.2c0.1-2.8-0.4-5.5-1.4-8.1C120.3,4.1,119,2.4,117.4,1.1z M107.4,25.9h-2.9V2.8h2.6c2.3-0.2,4.7,0.5,6.5,1.9
			c2.3,2.6,3.4,6.1,3,9.5C116.6,24.7,111.4,25.9,107.4,25.9L107.4,25.9z"/>
		<path id="Path_5386" class="st0" d="M139,4.9c-2.5,0-4.8,1.4-6,3.6l-0.3-3.1H128v25.2h5.4V16.4c0.9-4.3,2.5-6.2,5.1-6.2
			c0.7,0,1.3,0.1,1.9,0.3l0.6,0.2l1-5.3l-0.6-0.1C140.7,5,139.9,4.9,139,4.9z"/>
		<path id="Path_5387" class="st0" d="M148.2-6.1c-1.9,0-3.5,1.6-3.5,3.5c0,0.9,0.3,1.8,1,2.4c0.7,0.7,1.6,1,2.5,1
			c1.9,0.1,3.5-1.4,3.6-3.3c0.1-1.9-1.4-3.5-3.3-3.6c0,0,0,0,0,0C148.3-6.1,148.3-6.1,148.2-6.1z"/>
		<rect id="Rectangle_2034" x="145.5" y="5.4" class="st0" width="5.4" height="25.2"/>
		<path id="Path_5388" class="st0" d="M165.9,24.1l-5.8-18.7h-5.9l8.7,25.2h5.9l8.5-25.2h-5.7L165.9,24.1z"/>
		<path id="Path_5389" class="st0" d="M196.9,8.3c-0.9-1.1-2-2-3.3-2.5c-1.4-0.6-3-0.9-4.5-0.9c-3.1-0.1-6,1.4-7.8,3.8
			c-1.9,2.8-2.9,6.1-2.8,9.5c-0.2,3.4,0.9,6.7,2.9,9.4c2.1,2.3,5.1,3.6,8.3,3.5c3.2,0,6.3-1.1,8.7-3.1l0.5-0.4l-2.5-3.5l-0.5,0.4
			c-1.7,1.3-3.7,2-5.9,2c-3.3,0-5.3-2.2-5.8-6.4h15.2l0.1-0.6c0-0.4,0.1-1.3,0.1-2.2C199.7,14.1,198.8,10.9,196.9,8.3z M184.2,15.7
			c0.1-1.7,0.6-3.3,1.5-4.8c0.8-1,2.1-1.6,3.4-1.5c1.4-0.1,2.8,0.5,3.7,1.6c0.9,1.4,1.3,3,1.3,4.7L184.2,15.7z"/>
	</g>
	<path id="Path_5390" class="st0" d="M-9.1,1.4h-0.3c-2.3-6-8.9-8.9-14.9-6.7c-3.3,1.2-5.8,3.9-6.9,7.2c-5.3,0.4-9.2,5-8.7,10.3
		c0.4,4.9,4.5,8.8,9.5,8.8h6.9v-4.5h-5l8.9-8.9l8.9,8.9h-5.2V21h-7.6v4.5h-5.2l8.9,8.9l8.9-8.9h-5V21h7.1c5.4-0.2,9.6-4.7,9.5-10.1
		C0.6,5.5-3.8,1.3-9.1,1.4L-9.1,1.4z"/>
</g>
</svg>
