<?xml version="1.0" encoding="utf-8"?>
<!-- Generator: Adobe Illustrator 24.2.3, SVG Export Plug-In . SVG Version: 6.00 Build 0)  -->
<svg version="1.1" id="Layer_1" xmlns="http://www.w3.org/2000/svg" xmlns:xlink="http://www.w3.org/1999/xlink" x="0px" y="0px"
	 viewBox="0 0 280.9 46.4" style="enable-background:new 0 0 280.9 46.4;" xml:space="preserve">
<style type="text/css">
	.st0{fill:#FFFFFF;}
</style>
<g id="Group_3067" transform="translate(46 0)">
	<g id="Group_3065" transform="translate(0 0)">
		<path id="Path_1510" class="st0" d="M-6.7,0c-3-0.1-5.5,2.3-5.6,5.3v0.1l-23.6,7.2c-1.8-2.4-5.2-2.9-7.7-1.3
			c-1.2,0.8-2.1,2-2.3,3.4c-0.3,1.4,0.1,2.8,0.9,3.9c1.1,1.5,2.9,2.4,4.7,2.3c0.6,0,1.1-0.1,1.6-0.3l15.5,18.5
			c-0.5,1.2-0.6,2.6-0.1,3.9c0.6,1.4,1.6,2.4,3,3c0.7,0.3,1.4,0.4,2.2,0.4c2.2,0,4.2-1.2,5.1-3.2c0.9-2.1,0.4-4.6-1.4-6l8.2-26.6
			c2.8-0.2,4.9-2.5,4.9-5.2C-1.3,2.3-3.8-0.1-6.7,0z M-10.1,9.5l-8.1,26.3c-0.8,0-1.6,0.2-2.3,0.5l-15.1-18.1c0.4-0.6,0.6-1.3,0.7-2
			l24.1-7.3C-10.6,9.1-10.3,9.3-10.1,9.5L-10.1,9.5z"/>
		<path id="Path_1511" class="st0" d="M24,15.2L24,15.2c-2.9-1.8-6.4-2.7-9.8-2.5H5.1v32.5H10V33.3h4.1c3.4,0.2,6.9-0.7,9.7-2.6
			c2.5-1.8,3.9-4.9,3.6-8C27.7,19.8,26.4,16.9,24,15.2z M22.3,22.8c0.2,2-0.6,4-2.1,5.3c-1.9,1.1-4,1.6-6.2,1.5h-4V16.3h4.1
			c2.1-0.1,4.3,0.4,6.1,1.5C21.7,19,22.5,20.9,22.3,22.8L22.3,22.8L22.3,22.8z"/>
		<path id="Path_1512" class="st0" d="M43.9,19.7c-1.5,0-2.9,0.5-4.1,1.5c-1.2,1-2.1,2.3-2.6,3.7l-0.4-4.6h-4.2v24.9h4.7V31
			c0.4-1.9,1.2-3.7,2.4-5.2c1-1.1,2.4-1.7,3.8-1.7c0.8,0,1.5,0.1,2.2,0.3l0.1,0l0.9-4.4l-0.1,0C45.8,19.8,44.8,19.7,43.9,19.7z"/>
		<path id="Path_1513" class="st0" d="M68.8,23.2L68.8,23.2c-2.2-2.4-5.3-3.8-8.6-3.7c-2.2-0.1-4.4,0.5-6.3,1.6
			c-1.8,1.1-3.2,2.7-4.1,4.6c-1,2.2-1.5,4.5-1.4,6.9c-0.2,3.5,0.9,7,3.1,9.7c2.1,2.2,5,3.5,8.1,3.5c0.2,0,0.4,0,0.5,0
			c2.2,0.1,4.4-0.5,6.3-1.6c1.8-1.1,3.2-2.7,4.1-4.6c1-2.2,1.5-4.5,1.4-6.9C72,29.3,70.9,25.9,68.8,23.2z M66.7,32.7
			c0,3.1-0.6,5.4-1.7,7c-1.2,1.6-3,2.4-5,2.3c-1.9,0.1-3.8-0.7-5-2.3c-1.1-1.5-1.7-3.9-1.7-7c0-3.1,0.6-5.4,1.7-7
			c1.2-1.6,3-2.4,4.9-2.3c1.9-0.1,3.8,0.7,4.9,2.3C66.2,27.3,66.7,29.6,66.7,32.7L66.7,32.7z"/>
		<path id="Path_1514" class="st0" d="M90.6,41c-1,0.6-2.2,0.9-3.4,1h0c-0.9,0.1-1.7-0.2-2.3-0.8c-0.5-0.8-0.8-1.8-0.7-2.7V23.8H90
			l0.4-3.6h-6.2v-6.1l-4.8,0.6v5.5h-4.5v3.6h4.4v14.8c-0.1,2,0.6,3.9,1.9,5.3c1.3,1.2,3.1,1.9,4.8,1.8c0.1,0,0.3,0,0.4,0
			c2.1,0,4.2-0.6,5.9-1.7l0.1-0.1l-1.7-3L90.6,41z"/>
		<path id="Path_1515" class="st0" d="M114.8,23.2L114.8,23.2c-2.2-2.4-5.3-3.8-8.6-3.7c-2.2-0.1-4.4,0.5-6.4,1.6
			c-1.8,1.1-3.2,2.7-4.1,4.6c-1,2.2-1.5,4.5-1.4,6.9c-0.2,3.5,0.9,7,3.1,9.7c2.1,2.2,5,3.5,8.1,3.5c0.2,0,0.4,0,0.6,0
			c2.2,0.1,4.4-0.5,6.3-1.6c1.8-1.1,3.2-2.7,4.1-4.6c1-2.2,1.5-4.5,1.4-6.9C118.1,29.3,117,25.9,114.8,23.2z M112.7,32.7
			c0,3.1-0.6,5.4-1.7,7c-1.2,1.6-3,2.4-5,2.3c-1.9,0.1-3.8-0.7-5-2.3c-1.1-1.5-1.7-3.9-1.7-7c0-3.1,0.6-5.4,1.7-7
			c1.2-1.6,3-2.4,4.9-2.3c1.9-0.1,3.8,0.7,4.9,2.3C112.2,27.3,112.7,29.6,112.7,32.7L112.7,32.7z"/>
		<path id="Path_1516" class="st0" d="M143.2,21.7c-1.5-1.4-3.6-2.2-5.6-2c-1.6,0-3.2,0.4-4.6,1.1c-1.3,0.7-2.4,1.7-3.3,2.9
			l-0.4-3.5h-4.1v24.9h4.9V27.5c0.8-1.2,1.8-2.3,2.9-3.2c1.1-0.7,2.3-1.1,3.6-1.1c1.1-0.1,2.2,0.3,3,1c0.8,1,1.1,2.3,1,3.6v17.2h4.7
			V27.4C145.3,25.3,144.6,23.3,143.2,21.7z"/>
		<path id="Path_1517" class="st0" d="M163.5,39.9L155,12.7h-5.3l11.1,32.5h5.2l11-32.5h-5L163.5,39.9z"/>
		<path id="Path_1518" class="st0" d="M200.9,15.2L200.9,15.2c-3-1.9-6.4-2.7-9.9-2.5h-9.1v32.5h4.9V33.3h4.2
			c3.4,0.2,6.9-0.7,9.7-2.6c2.5-1.8,3.9-4.9,3.6-8C204.6,19.8,203.3,16.9,200.9,15.2z M199.2,22.8c0.2,2-0.6,4-2.1,5.3
			c-1.9,1.1-4,1.6-6.2,1.5h-4V16.3h4.1c2.1-0.1,4.3,0.4,6.1,1.5C198.6,19,199.3,20.9,199.2,22.8L199.2,22.8L199.2,22.8z"/>
		<path id="Path_1519" class="st0" d="M230.2,12.7v17.7c0,1.7,0.1,3.6,0.2,5.6c0.1,1.6,0.2,2.8,0.3,3.7l-13.8-27h-6.3v32.4h4.6V30.2
			c0-2.6-0.1-4.8-0.2-6.6c-0.1-1.7-0.2-3.5-0.4-5.4l13.6,26.9l0,0.1h6.5l0-32.5L230.2,12.7z"/>
	</g>
</g>
</svg>
