<?xml version="1.0" encoding="utf-8"?>
<!-- Generator: Adobe Illustrator 24.2.3, SVG Export Plug-In . SVG Version: 6.00 Build 0)  -->
<svg version="1.1" id="Layer_1" xmlns="http://www.w3.org/2000/svg" xmlns:xlink="http://www.w3.org/1999/xlink" x="0px" y="0px"
	 viewBox="0 0 374.1 40" style="enable-background:new 0 0 374.1 40;" xml:space="preserve">
<style type="text/css">
	.st0{fill:#FFFFFF;}
</style>
<g id="Group_5604" transform="translate(-955 -1843.386)">
	<g id="ProtonCalendar_Logo" transform="translate(955 1849.905)">
		<g id="Group_5600" transform="translate(0 0)">
			<path id="Path_2411" class="st0" d="M30.8-3.2h-2.5v-0.9c0-1.3-1.1-2.4-2.4-2.3c-1.3,0-2.3,1.1-2.3,2.3v0.9H11.8v-0.9
				c0-1.3-1-2.4-2.3-2.4c0,0,0,0-0.1,0C8.2-6.6,7.1-5.7,7-4.5c0,0.1,0,0.3,0,0.4v0.9H4.6C2-3.2,0-1.1,0,1.5c0,0,0,0,0,0v26.6
				c0,2.6,2.1,4.7,4.8,4.8h26c2.6,0,4.7-2.1,4.8-4.8V1.4C35.3-1.1,33.3-3,30.8-3.2z M32.1,28c0,0.7-0.6,1.3-1.3,1.3c0,0,0,0,0,0H4.6
				c-0.7,0-1.3-0.6-1.3-1.3c0,0,0,0,0,0V5.4h29.2V28H32.1z"/>
		</g>
		<g id="_30-2_2_" transform="translate(7.142 17.102)">
			<g id="Group_5601" transform="translate(0 0)">
				<path id="Path_2412" class="st0" d="M9.2-3.2c0.1,1.5-1,2.9-2.5,3.1c1.7,0,3,1.4,3,3.1c0,0,0,0.1,0,0.1c0,2.2-1.8,4-5.1,4
					C2.9,7.3,1.1,6.6,0,5.3l1.6-1.6C2.3,4.4,3.3,4.9,4.3,5c1.1,0.1,2-0.7,2.1-1.7c0-0.1,0-0.1,0-0.2c0-1.3-0.7-1.9-2.1-1.9h-1L3.6-1
					h0.7c1.2,0,1.9-0.6,1.9-1.8c0-0.9-0.7-1.5-1.8-1.5c-1,0-1.9,0.4-2.5,1.2L0.4-4.7c1.2-1.2,2.8-1.8,4.5-1.8C7.6-6.6,9.2-5,9.2-3.2
					z"/>
				<path id="Path_2413" class="st0" d="M21,0.3c0,4.5-1.8,7-5.1,7s-5.1-2.5-5.1-7s1.8-6.8,5.1-6.8S21-4.1,21,0.3z M14.3,0.3
					c0,3.6,0.6,4.6,1.8,4.6c1.3,0,1.8-1,1.8-4.6s-0.6-4.6-1.8-4.6C14.7-4.3,14.3-3.2,14.3,0.3z"/>
			</g>
		</g>
	</g>
	<g id="ProtonCalendar" transform="translate(1003.609 1854.059)">
		<path id="Path_1526" class="st0" d="M22.5,6.7c0,7.4-5.3,10.7-12.6,10.7H6.2v11.2H0V-3.5h9.5C17.6-3.5,22.5-0.2,22.5,6.7z
			 M16.1,6.7c0-4-2.5-5.7-6.7-5.7H6.2v11.8h3.3C13.5,12.8,16.1,11.4,16.1,6.7L16.1,6.7z"/>
		<path id="Path_1527" class="st0" d="M40.9,3.7l-1,5.8c-0.7-0.2-1.4-0.3-2.2-0.3c-3,0-4.5,2.2-5.4,6.3v13.1h-6V4h5.1L32,8.8
			c1.2-3.5,3.5-5.5,6.4-5.5C39.3,3.3,40.1,3.4,40.9,3.7z"/>
		<path id="Path_1528" class="st0" d="M64.8,16.2c0,7.8-4.3,13-11.6,13s-11.6-4.9-11.6-13c0-7.7,4.3-13,11.6-13S64.8,8.2,64.8,16.2z
			 M47.9,16.2c0,5.9,1.8,8.5,5.3,8.5s5.3-2.6,5.3-8.5s-1.8-8.4-5.2-8.4S47.9,10.4,47.9,16.2L47.9,16.2z"/>
		<path id="Path_1529" class="st0" d="M84.4,27.4c-1.8,1.2-4,1.9-6.2,1.9c-4.8,0-7.4-2.8-7.4-8v-13h-3.8V4h3.8v-5.4l6-0.7V4h5.7
			L82,8.3h-5.1v12.8c0,2.4,0.8,3.4,2.6,3.4c1,0,2-0.4,2.9-0.9L84.4,27.4z"/>
		<path id="Path_1530" class="st0" d="M108.5,16.2c0,7.8-4.3,13-11.6,13s-11.6-4.9-11.6-13c0-7.7,4.3-13,11.6-13
			S108.5,8.2,108.5,16.2z M91.6,16.2c0,5.9,1.8,8.5,5.3,8.5s5.3-2.6,5.3-8.5s-1.8-8.4-5.2-8.4S91.6,10.4,91.6,16.2L91.6,16.2z"/>
		<path id="Path_1531" class="st0" d="M134.1,10.8v17.8h-5.9V11.7c0-3.1-1.2-3.9-3-3.9c-2.1,0-3.7,1.5-5.1,3.7v17.1h-6V4h5.1
			l0.5,3.2c1.7-2.4,4.5-3.9,7.5-3.9C131.6,3.3,134.1,6.1,134.1,10.8z"/>
		<path id="Path_1532" class="st0" d="M162.9-0.8l-3.1,3.6c-1.7-1.4-3.8-2.2-6-2.3c-4.4,0-7.9,3.2-7.9,11.9c0,8.4,3.3,11.9,7.9,11.9
			c2.8,0,4.7-1.2,6.6-2.6l2.9,3.6c-2.6,2.5-6,3.9-9.6,3.9c-8.3,0-14.1-5.9-14.1-16.8c0-10.8,6.1-16.7,14-16.7
			C157-4.3,160.3-3.1,162.9-0.8z"/>
		<path id="Path_1533" class="st0" d="M187,25.2l-1.3,3.9c-2.7-0.3-4.4-1.2-5.5-3.6c-1.6,2.4-4.4,3.8-7.3,3.7
			c-4.9,0-7.9-3.1-7.9-7.6c0-5.3,4-8.2,11.2-8.2h3.1v-1.4c0-3.2-1.5-4.3-4.6-4.3c-2.2,0.1-4.4,0.6-6.5,1.3l-1.4-4
			c2.8-1.1,5.9-1.7,8.9-1.8c6.6,0,9.4,3,9.4,8.4V22C185.1,24.1,185.8,24.7,187,25.2z M179.3,21.9V17h-2.5c-3.8,0-5.8,1.4-5.8,4.3
			c0,2.4,1.2,3.7,3.5,3.7C176.6,24.9,178.4,23.7,179.3,21.9z"/>
		<path id="Path_1534" class="st0" d="M191.6,23V-5.8l6-0.7v29.3c0,1.2,0.4,1.7,1.4,1.7c0.5,0,1-0.1,1.4-0.3l1.3,4.2
			c-1.2,0.6-2.6,0.9-3.9,0.9C193.9,29.3,191.6,27,191.6,23z"/>
		<path id="Path_1535" class="st0" d="M225.3,18.1h-15.4c0.4,5,2.8,6.6,6.1,6.6c2.2,0,4.4-0.8,6.1-2.2l2.5,3.4
			c-2.5,2.1-5.8,3.3-9.1,3.3c-7.6,0-11.7-5-11.7-12.8c0-7.5,3.9-13.1,10.9-13.1c6.9,0,10.8,4.6,10.8,12.4
			C225.5,16.5,225.4,17.5,225.3,18.1z M219.6,14c0-4-1.4-6.5-4.8-6.5c-2.8,0-4.5,1.9-4.9,6.7h9.7V14z"/>
		<path id="Path_1536" class="st0" d="M250.9,10.8v17.8h-6V11.7c0-3.1-1.2-3.9-3-3.9c-2.1,0-3.7,1.5-5.1,3.7v17.1h-6V4h5.1l0.5,3.2
			c1.7-2.4,4.5-3.9,7.5-3.9C248.3,3.3,250.9,6.1,250.9,10.8z"/>
		<path id="Path_1537" class="st0" d="M278.5-5.9v34.4h-5.2l-0.4-3.1c-1.5,2.4-4.2,3.9-7,3.8c-6.1,0-9.3-5.1-9.3-13
			c0-7.6,3.8-13,9.9-13c2.3,0,4.5,1,6.2,2.6V-6.5L278.5-5.9z M272.5,21.6V10.3c-1.3-1.6-2.7-2.6-4.7-2.6c-3.1,0-5.1,2.6-5.1,8.5
			c0,6.3,1.8,8.5,4.7,8.5C269.6,24.7,271.1,23.7,272.5,21.6L272.5,21.6z"/>
		<path id="Path_1538" class="st0" d="M305.6,25.2l-1.3,3.9c-2.7-0.3-4.4-1.2-5.5-3.6c-1.6,2.4-4.4,3.8-7.3,3.7
			c-4.9,0-7.9-3.1-7.9-7.6c0-5.3,4-8.2,11.2-8.2h3.1v-1.4c0-3.2-1.4-4.3-4.6-4.3c-2.2,0.1-4.4,0.6-6.5,1.3l-1.4-4
			c2.8-1.1,5.9-1.7,8.9-1.8c6.6,0,9.4,3,9.4,8.4V22C303.7,24.1,304.4,24.7,305.6,25.2z M297.9,21.9V17h-2.5c-3.8,0-5.8,1.4-5.8,4.3
			c0,2.4,1.2,3.7,3.5,3.7C295.2,24.9,297,23.7,297.9,21.9z"/>
		<path id="Path_1539" class="st0" d="M325.5,3.7l-1,5.8c-0.7-0.2-1.4-0.3-2.2-0.3c-3,0-4.5,2.2-5.5,6.3v13.1h-6V4h5.1l0.6,4.8
			c1.2-3.5,3.5-5.5,6.4-5.5C323.9,3.3,324.7,3.4,325.5,3.7z"/>
	</g>
</g>
</svg>
