<?xml version="1.0" encoding="utf-8"?>
<!-- Generator: Adobe Illustrator 24.2.3, SVG Export Plug-In . SVG Version: 6.00 Build 0)  -->
<svg version="1.1" id="Layer_1" xmlns="http://www.w3.org/2000/svg" xmlns:xlink="http://www.w3.org/1999/xlink" x="0px" y="0px"
	 viewBox="0 0 269 40.4" style="enable-background:new 0 0 269 40.4;" xml:space="preserve">
<style type="text/css">
	.st0{fill:#FFFFFF;}
</style>
<g id="Group_3066" transform="translate(52 6)">
	<g id="Group_3064" transform="translate(0 0)">
		<path id="Path_1498" class="st0" d="M10,4.5C7.8,2.9,4.5,2.1,0.3,2.1H-9v32.3h5.8V22.9h3.5c4.1,0,7.3-0.8,9.5-2.4
			c2.5-1.8,3.8-4.6,3.8-8.2C13.9,9.2,12.5,6.3,10,4.5z M7.6,12.3c0,2.3-0.6,3.9-1.9,4.8c-1.1,0.8-2.7,1.2-5,1.2h-3.9V6.6h3.9
			C5.4,6.6,7.6,8.5,7.6,12.3L7.6,12.3z"/>
		<path id="Path_1499" class="st0" d="M29.4,8.8c-1.5,0-3.1,0.5-4.3,1.4c-0.8,0.6-1.4,1.3-1.9,2.2l-0.3-3.1h-5v25h5.7V19.9
			c0.4-1.4,1.8-5.8,5.4-5.8c0.7,0,1.4,0.1,2,0.3l0.7,0.2l1-5.2L32,9.1C31.1,8.9,30.2,8.8,29.4,8.8z"/>
		<path id="Path_1500" class="st0" d="M44.7,8.3c-3.3-0.1-6.6,1.2-8.8,3.7c-2.1,2.6-3.2,6-3.1,9.4c0,3.9,1.1,7.1,3.1,9.4
			c2.3,2.4,5.5,3.7,8.8,3.6c3.3,0.1,6.5-1.2,8.8-3.7c2.1-2.6,3.2-6,3.1-9.4c0-3.9-1.1-7.1-3-9.4C51.2,9.4,48,8.1,44.7,8.3z
			 M44.7,29.8c-3.9,0-5.9-2.8-5.9-8.5c0-2.9,0.5-5.1,1.6-6.5c1-1.3,2.6-2.1,4.3-2c1.7-0.1,3.3,0.6,4.3,2s1.6,3.6,1.6,6.5
			C50.5,27,48.6,29.8,44.7,29.8L44.7,29.8z"/>
		<path id="Path_1501" class="st0" d="M73.1,28.8c-0.9,0.6-1.9,0.9-3,0.9c-1.5,0-2.4-0.5-2.4-2.9V13.2h5.7l0.7-4.4h-6.5V2.9
			l-5.7,0.6v5.3h-4v4.4h4v13.7c0,4.8,2.7,7.5,7.4,7.5c2.1,0,4.2-0.6,6-1.7l0.4-0.3l-2.3-3.8L73.1,28.8z"/>
		<path id="Path_1502" class="st0" d="M88.3,8.3C85,8.1,81.7,9.5,79.5,12c-2.1,2.6-3.2,6-3.1,9.4c0,3.9,1.1,7.1,3.1,9.4
			c2.3,2.4,5.5,3.7,8.8,3.6c3.3,0.1,6.5-1.2,8.8-3.7c2.1-2.6,3.2-6,3.1-9.4c0-3.9-1.1-7.1-3-9.4C94.8,9.4,91.6,8.1,88.3,8.3z
			 M88.3,29.8c-3.9,0-5.9-2.8-5.9-8.5c0-2.9,0.5-5.1,1.6-6.5c1-1.3,2.6-2.1,4.3-2c1.7-0.1,3.3,0.6,4.3,2s1.5,3.6,1.5,6.5
			C94.1,27,92.2,29.8,88.3,29.8L88.3,29.8z"/>
		<path id="Path_1503" class="st0" d="M118.1,8.8c-2.8,0-5.5,1.1-7.5,3l-0.3-2.4h-5v25h5.7V16.7c0.9-1.1,2.9-3.4,5.6-3.4
			c2.4,0,3.3,0.9,3.3,3.5v17.6h5.7V16.5c0.1-2-0.5-4-1.7-5.6C122.6,9.5,120.6,8.8,118.1,8.8z"/>
		<path id="Path_1504" class="st0" d="M154.2,2.1l-6.6,21.5l-6.8-21.5h-7.2l-2.8,32.3h5.6l1.3-16.5c0.2-2.3,0.3-5.1,0.4-7.2
			l6.8,20.4h5.3l6.5-20.4c0.1,2,0.2,4.7,0.4,7.2l1.5,16.5h5.7l-2.8-32.3L154.2,2.1z"/>
		<path id="Path_1505" class="st0" d="M187.9,27.8V16.6c0-3.8-1.7-8.4-9.8-8.4c-2.9,0-5.9,0.6-8.6,1.6l-0.6,0.2l1.6,4.2l0.6-0.2
			c2.1-0.7,4.2-1.1,6.4-1.2c3.5,0,4.8,1.1,4.8,4V18h-2.6c-3.9,0-7,0.7-9.1,2.1c-2.1,1.3-3.4,3.7-3.3,6.2c0,4.8,3.5,8,8.8,8
			c1.5,0,3.1-0.3,4.5-0.9c1.1-0.5,2-1.1,2.8-1.9c1,1.7,2.8,2.7,4.7,2.8l0.5,0.1l1.4-3.9l-0.6-0.2C188.3,29.9,187.9,29.5,187.9,27.8z
			 M182.2,22.1v5.1c-1.1,1.8-3,2.8-5.1,2.9c-2.7,0-3.9-1.1-3.9-3.8c-0.1-1.2,0.4-2.3,1.4-3c1.1-0.8,2.8-1.2,5.3-1.2H182.2z"/>
		<path id="Path_1506" class="st0" d="M197.5-1.7c-1,0-1.9,0.3-2.7,1c-0.7,0.6-1,1.5-1,2.4c0,1.9,1.6,3.5,3.5,3.5c0.1,0,0.2,0,0.2,0
			c1,0,1.9-0.3,2.7-1c0.7-0.6,1.1-1.5,1.1-2.5c-0.1-1.9-1.7-3.5-3.6-3.4l0,0C197.6-1.7,197.5-1.7,197.5-1.7z"/>
		<rect id="Rectangle_1349" x="194.6" y="9.4" class="st0" width="5.7" height="25"/>
		<path id="Path_1507" class="st0" d="M215.4,29.3l-0.6,0.2c-0.4,0.2-0.9,0.2-1.4,0.2s-0.9,0-0.9-1.3V-1.3l-5.7,0.6V28
			c-0.1,1.7,0.5,3.5,1.6,4.8c1.1,1,2.6,1.6,4.2,1.5c1.3,0,2.6-0.3,3.9-0.9l0.5-0.2L215.4,29.3z"/>
		<path id="Path_1508" class="st0" d="M-36.8-6c0,0-12.6-0.4-15.2,12.8v9c0,0,0.1,1,3,2.9s10.3,7.5,12.2,7.5s9.3-5.5,12.2-7.5
			s3-2.9,3-2.9v-9C-24.2-6.4-36.8-6-36.8-6z M-28.2,11.7h-17.2V6.8c1.7-6.6,8.6-6.6,8.6-6.6s6.9,0.1,8.6,6.6
			C-28.2,6.8-28.2,11.7-28.2,11.7z"/>
		<path id="Path_1509" class="st0" d="M-36.8,28.2c-1.2-0.1-2.4-0.5-3.5-1.2c-1.5-1-11.7-7.9-11.7-7.9v13.6c0.1,1,0.9,1.7,1.9,1.6
			l0,0l0,0h26.5c1,0.1,1.8-0.6,1.9-1.6l0,0l0,0V19.1c0,0-10.2,6.9-11.7,7.9C-34.4,27.7-35.6,28.1-36.8,28.2z"/>
	</g>
</g>
</svg>
