<svg xmlns="http://www.w3.org/2000/svg" viewBox="0 0 374.1 40" enable-background="new 0 0 374.1 40"><style type="text/css">.st0{fill:#FFFFFF;}</style><g id="Group_5604"><g id="ProtonCalendar_Logo"><path id="Path_2411" class="st0" d="M30.8 3.319h-2.5v-.9c0-1.3-1.1-2.4-2.4-2.3-1.3 0-2.3 1.1-2.3 2.3v.9h-11.8v-.9c0-1.3-1-2.4-2.3-2.4h-.1c-1.2-.1-2.3.8-2.4 2v1.3h-2.4c-2.6 0-4.6 2.1-4.6 4.7v26.6c0 2.6 2.1 4.7 4.8 4.8h26c2.6 0 4.7-2.1 4.8-4.8v-26.7c-.3-2.5-2.3-4.4-4.8-4.6zm1.3 31.2c0 .7-.6 1.3-1.3 1.3h-26.2c-.7 0-1.3-.6-1.3-1.3v-22.6h29.2v22.6h-.4z"/><g id="Group_5601"><path id="Path_2412" class="st0" d="M16.342 20.421c.1 1.5-1 2.9-2.5 3.1 1.7 0 3 1.4 3 3.1v.1c0 2.2-1.8 4-5.1 4-1.7.2-3.5-.5-4.6-1.8l1.6-1.6c.7.7 1.7 1.2 2.7 1.3 1.1.1 2-.7 2.1-1.7v-.2c0-1.3-.7-1.9-2.1-1.9h-1l.3-2.2h.7c1.2 0 1.9-.6 1.9-1.8 0-.9-.7-1.5-1.8-1.5-1 0-1.9.4-2.5 1.2l-1.5-1.6c1.2-1.2 2.8-1.8 4.5-1.8 2.7-.1 4.3 1.5 4.3 3.3z"/><path id="Path_2413" class="st0" d="M28.142 23.921c0 4.5-1.8 7-5.1 7s-5.1-2.5-5.1-7 1.8-6.8 5.1-6.8 5.1 2.4 5.1 6.8zm-6.7 0c0 3.6.6 4.6 1.8 4.6 1.3 0 1.8-1 1.8-4.6s-.6-4.6-1.8-4.6c-1.4 0-1.8 1.1-1.8 4.6z"/></g></g><g id="ProtonCalendar"><path id="Path_1526" class="st0" d="M71.109 17.373c0 7.4-5.3 10.7-12.6 10.7h-3.7v11.2h-6.2v-32.1h9.5c8.1 0 13 3.3 13 10.2zm-6.4 0c0-4-2.5-5.7-6.7-5.7h-3.2v11.8h3.3c4 0 6.6-1.4 6.6-6.1z"/><path id="Path_1527" class="st0" d="M89.509 14.373l-1 5.8c-.7-.2-1.4-.3-2.2-.3-3 0-4.5 2.2-5.4 6.3v13.1h-6v-24.6h5.1l.6 4.8c1.2-3.5 3.5-5.5 6.4-5.5.9 0 1.7.1 2.5.4z"/><path id="Path_1528" class="st0" d="M113.409 26.873c0 7.8-4.3 13-11.6 13s-11.6-4.9-11.6-13c0-7.7 4.3-13 11.6-13s11.6 5 11.6 13zm-16.9 0c0 5.9 1.8 8.5 5.3 8.5s5.3-2.6 5.3-8.5-1.8-8.4-5.2-8.4-5.4 2.6-5.4 8.4z"/><path id="Path_1529" class="st0" d="M133.009 38.073c-1.8 1.2-4 1.9-6.2 1.9-4.8 0-7.4-2.8-7.4-8v-13h-3.8v-4.3h3.8v-5.4l6-.7v6.1h5.7l-.5 4.3h-5.1v12.8c0 2.4.8 3.4 2.6 3.4 1 0 2-.4 2.9-.9l2 3.8z"/><path id="Path_1530" class="st0" d="M157.109 26.873c0 7.8-4.3 13-11.6 13s-11.6-4.9-11.6-13c0-7.7 4.3-13 11.6-13s11.6 5 11.6 13zm-16.9 0c0 5.9 1.8 8.5 5.3 8.5s5.3-2.6 5.3-8.5-1.8-8.4-5.2-8.4-5.4 2.6-5.4 8.4z"/><path id="Path_1531" class="st0" d="M182.709 21.473v17.8h-5.9v-16.9c0-3.1-1.2-3.9-3-3.9-2.1 0-3.7 1.5-5.1 3.7v17.1h-6v-24.6h5.1l.5 3.2c1.7-2.4 4.5-3.9 7.5-3.9 4.4 0 6.9 2.8 6.9 7.5z"/><path id="Path_1532" class="st0" d="M211.509 9.873l-3.1 3.6c-1.7-1.4-3.8-2.2-6-2.3-4.4 0-7.9 3.2-7.9 11.9 0 8.4 3.3 11.9 7.9 11.9 2.8 0 4.7-1.2 6.6-2.6l2.9 3.6c-2.6 2.5-6 3.9-9.6 3.9-8.3 0-14.1-5.9-14.1-16.8 0-10.8 6.1-16.7 14-16.7 3.4 0 6.7 1.2 9.3 3.5z"/><path id="Path_1533" class="st0" d="M235.609 35.873l-1.3 3.9c-2.7-.3-4.4-1.2-5.5-3.6-1.6 2.4-4.4 3.8-7.3 3.7-4.9 0-7.9-3.1-7.9-7.6 0-5.3 4-8.2 11.2-8.2h3.1v-1.4c0-3.2-1.5-4.3-4.6-4.3-2.2.1-4.4.6-6.5 1.3l-1.4-4c2.8-1.1 5.9-1.7 8.9-1.8 6.6 0 9.4 3 9.4 8.4v10.4c0 2.1.7 2.7 1.9 3.2zm-7.7-3.3v-4.9h-2.5c-3.8 0-5.8 1.4-5.8 4.3 0 2.4 1.2 3.7 3.5 3.7 2.1-.1 3.9-1.3 4.8-3.1z"/><path id="Path_1534" class="st0" d="M240.209 33.673v-28.8l6-.7v29.3c0 1.2.4 1.7 1.4 1.7.5 0 1-.1 1.4-.3l1.3 4.2c-1.2.6-2.6.9-3.9.9-3.9 0-6.2-2.3-6.2-6.3z"/><path id="Path_1535" class="st0" d="M273.909 28.773h-15.4c.4 5 2.8 6.6 6.1 6.6 2.2 0 4.4-.8 6.1-2.2l2.5 3.4c-2.5 2.1-5.8 3.3-9.1 3.3-7.6 0-11.7-5-11.7-12.8 0-7.5 3.9-13.1 10.9-13.1 6.9 0 10.8 4.6 10.8 12.4 0 .8-.1 1.8-.2 2.4zm-5.7-4.1c0-4-1.4-6.5-4.8-6.5-2.8 0-4.5 1.9-4.9 6.7h9.7v-.2z"/><path id="Path_1536" class="st0" d="M299.509 21.473v17.8h-6v-16.9c0-3.1-1.2-3.9-3-3.9-2.1 0-3.7 1.5-5.1 3.7v17.1h-6v-24.6h5.1l.5 3.2c1.7-2.4 4.5-3.9 7.5-3.9 4.4 0 7 2.8 7 7.5z"/><path id="Path_1537" class="st0" d="M327.109 4.773v34.4h-5.2l-.4-3.1c-1.5 2.4-4.2 3.9-7 3.8-6.1 0-9.3-5.1-9.3-13 0-7.6 3.8-13 9.9-13 2.3 0 4.5 1 6.2 2.6v-12.3l5.8.6zm-6 27.5v-11.3c-1.3-1.6-2.7-2.6-4.7-2.6-3.1 0-5.1 2.6-5.1 8.5 0 6.3 1.8 8.5 4.7 8.5 2.2 0 3.7-1 5.1-3.1z"/><path id="Path_1538" class="st0" d="M354.209 35.873l-1.3 3.9c-2.7-.3-4.4-1.2-5.5-3.6-1.6 2.4-4.4 3.8-7.3 3.7-4.9 0-7.9-3.1-7.9-7.6 0-5.3 4-8.2 11.2-8.2h3.1v-1.4c0-3.2-1.4-4.3-4.6-4.3-2.2.1-4.4.6-6.5 1.3l-1.4-4c2.8-1.1 5.9-1.7 8.9-1.8 6.6 0 9.4 3 9.4 8.4v10.4c0 2.1.7 2.7 1.9 3.2zm-7.7-3.3v-4.9h-2.5c-3.8 0-5.8 1.4-5.8 4.3 0 2.4 1.2 3.7 3.5 3.7 2.1-.1 3.9-1.3 4.8-3.1z"/><path id="Path_1539" class="st0" d="M374.109 14.373l-1 5.8c-.7-.2-1.4-.3-2.2-.3-3 0-4.5 2.2-5.5 6.3v13.1h-6v-24.6h5.1l.6 4.8c1.2-3.5 3.5-5.5 6.4-5.5 1 0 1.8.1 2.6.4z"/></g></g></svg>