<svg xmlns="http://www.w3.org/2000/svg" viewBox="0 0 280.9 46.4" enable-background="new 0 0 280.9 46.4"><style type="text/css">.st0{fill:#FFFFFF;}</style><g id="Group_3065"><path id="Path_1510" class="st0" d="M39.3 0c-3-.1-5.5 2.3-5.6 5.3v.1l-23.6 7.2c-1.8-2.4-5.2-2.9-7.7-1.3-1.2.8-2.1 2-2.3 3.4-.3 1.4.1 2.8.9 3.9 1.1 1.5 2.9 2.4 4.7 2.3.6 0 1.1-.1 1.6-.3l15.5 18.5c-.5 1.2-.6 2.6-.1 3.9.6 1.4 1.6 2.4 3 3 .7.3 1.4.4 2.2.4 2.2 0 4.2-1.2 5.1-3.2.9-2.1.4-4.6-1.4-6l8.2-26.6c2.8-.2 4.9-2.5 4.9-5.2 0-3.1-2.5-5.5-5.4-5.4zm-3.4 9.5l-8.1 26.3c-.8 0-1.6.2-2.3.5l-15.1-18.1c.4-.6.6-1.3.7-2l24.1-7.3.7.6z"/><path id="Path_1511" class="st0" d="M70 15.2c-2.9-1.8-6.4-2.7-9.8-2.5h-9.1v32.5h4.9v-11.9h4.1c3.4.2 6.9-.7 9.7-2.6 2.5-1.8 3.9-4.9 3.6-8 .3-2.9-1-5.8-3.4-7.5zm-1.7 7.6c.2 2-.6 4-2.1 5.3-1.9 1.1-4 1.6-6.2 1.5h-4v-13.3h4.1c2.1-.1 4.3.4 6.1 1.5 1.5 1.2 2.3 3.1 2.1 5z"/><path id="Path_1512" class="st0" d="M89.9 19.7c-1.5 0-2.9.5-4.1 1.5-1.2 1-2.1 2.3-2.6 3.7l-.4-4.6h-4.2v24.9h4.7v-14.2c.4-1.9 1.2-3.7 2.4-5.2 1-1.1 2.4-1.7 3.8-1.7.8 0 1.5.1 2.2.3h.1l.9-4.4h-.1c-.8-.2-1.8-.3-2.7-.3z"/><path id="Path_1513" class="st0" d="M114.8 23.2c-2.2-2.4-5.3-3.8-8.6-3.7-2.2-.1-4.4.5-6.3 1.6-1.8 1.1-3.2 2.7-4.1 4.6-1 2.2-1.5 4.5-1.4 6.9-.2 3.5.9 7 3.1 9.7 2.1 2.2 5 3.5 8.1 3.5h.5c2.2.1 4.4-.5 6.3-1.6 1.8-1.1 3.2-2.7 4.1-4.6 1-2.2 1.5-4.5 1.4-6.9.1-3.4-1-6.8-3.1-9.5zm-2.1 9.5c0 3.1-.6 5.4-1.7 7-1.2 1.6-3 2.4-5 2.3-1.9.1-3.8-.7-5-2.3-1.1-1.5-1.7-3.9-1.7-7s.6-5.4 1.7-7c1.2-1.6 3-2.4 4.9-2.3 1.9-.1 3.8.7 4.9 2.3 1.4 1.6 1.9 3.9 1.9 7z"/><path id="Path_1514" class="st0" d="M136.6 41c-1 .6-2.2.9-3.4 1-.9.1-1.7-.2-2.3-.8-.5-.8-.8-1.8-.7-2.7v-14.7h5.8l.4-3.6h-6.2v-6.1l-4.8.6v5.5h-4.5v3.6h4.4v14.8c-.1 2 .6 3.9 1.9 5.3 1.3 1.2 3.1 1.9 4.8 1.8h.4c2.1 0 4.2-.6 5.9-1.7l.1-.1-1.7-3-.1.1z"/><path id="Path_1515" class="st0" d="M160.8 23.2c-2.2-2.4-5.3-3.8-8.6-3.7-2.2-.1-4.4.5-6.4 1.6-1.8 1.1-3.2 2.7-4.1 4.6-1 2.2-1.5 4.5-1.4 6.9-.2 3.5.9 7 3.1 9.7 2.1 2.2 5 3.5 8.1 3.5h.6c2.2.1 4.4-.5 6.3-1.6 1.8-1.1 3.2-2.7 4.1-4.6 1-2.2 1.5-4.5 1.4-6.9.2-3.4-.9-6.8-3.1-9.5zm-2.1 9.5c0 3.1-.6 5.4-1.7 7-1.2 1.6-3 2.4-5 2.3-1.9.1-3.8-.7-5-2.3-1.1-1.5-1.7-3.9-1.7-7s.6-5.4 1.7-7c1.2-1.6 3-2.4 4.9-2.3 1.9-.1 3.8.7 4.9 2.3 1.4 1.6 1.9 3.9 1.9 7z"/><path id="Path_1516" class="st0" d="M189.2 21.7c-1.5-1.4-3.6-2.2-5.6-2-1.6 0-3.2.4-4.6 1.1-1.3.7-2.4 1.7-3.3 2.9l-.4-3.5h-4.1v24.9h4.9v-17.6c.8-1.2 1.8-2.3 2.9-3.2 1.1-.7 2.3-1.1 3.6-1.1 1.1-.1 2.2.3 3 1 .8 1 1.1 2.3 1 3.6v17.2h4.7v-17.6c0-2.1-.7-4.1-2.1-5.7z"/><path id="Path_1517" class="st0" d="M209.5 39.9l-8.5-27.2h-5.3l11.1 32.5h5.2l11-32.5h-5l-8.5 27.2z"/><path id="Path_1518" class="st0" d="M246.9 15.2c-3-1.9-6.4-2.7-9.9-2.5h-9.1v32.5h4.9v-11.9h4.2c3.4.2 6.9-.7 9.7-2.6 2.5-1.8 3.9-4.9 3.6-8 .3-2.9-1-5.8-3.4-7.5zm-1.7 7.6c.2 2-.6 4-2.1 5.3-1.9 1.1-4 1.6-6.2 1.5h-4v-13.3h4.1c2.1-.1 4.3.4 6.1 1.5 1.5 1.2 2.2 3.1 2.1 5z"/><path id="Path_1519" class="st0" d="M276.2 12.7v17.7c0 1.7.1 3.6.2 5.6.1 1.6.2 2.8.3 3.7l-13.8-27h-6.3v32.4h4.6v-14.9c0-2.6-.1-4.8-.2-6.6-.1-1.7-.2-3.5-.4-5.4l13.6 26.9v.1h6.5v-32.5h-4.5z"/></g></svg>