<svg xmlns="http://www.w3.org/2000/svg" viewBox="0 0 293.1 40.5" enable-background="new 0 0 293.1 40.5"><style type="text/css">.st0{fill:#FFFFFF;}</style><g id="Group_5609"><g id="Group_6109"><path id="Path_5379" class="st0" d="M62.39 5.158h-8.8v32.5h5.6v-11.5h3.3c3.2.2 6.4-.7 9-2.5 2.5-2 3.9-5.1 3.7-8.2 0-6.7-4.5-10.3-12.8-10.3zm-3.2 4.6h3.2c4.8 0 7 1.8 7 5.7.2 1.8-.5 3.6-1.9 4.8-1.6 1-3.4 1.4-5.2 1.2h-3.1v-11.7z"/><path id="Path_5380" class="st0" d="M90.79 11.958c-2.5 0-4.8 1.4-6 3.6l-.3-3.1h-4.8v25.2h5.4v-14.2c1-4.3 2.5-6.2 5.1-6.2.7 0 1.3.1 1.9.3l.6.2 1-5.3-.6-.1c-.7-.3-1.5-.4-2.3-.4z"/><path id="Path_5381" class="st0" d="M106.39 11.958c-3.2-.1-6.3 1.2-8.4 3.7-3.9 5.7-3.9 13.2 0 18.9 4.3 4.6 11.5 4.8 16.1.6l.7-.7c3.9-5.7 3.9-13.2 0-18.9-2.1-2.4-5.2-3.8-8.4-3.6zm0 21.6c-3.7 0-5.6-2.8-5.6-8.5-.2-2.3.4-4.6 1.5-6.6.9-1.3 2.5-2.1 4.1-2 1.6-.1 3.1.6 4 2 1.1 2 1.6 4.3 1.5 6.5 0 5.8-1.8 8.6-5.5 8.6z"/><path id="Path_5382" class="st0" d="M134.09 32.558c-.8.6-1.8.9-2.8 1-1.4 0-2.2-.5-2.2-2.9v-13.7h5.1l.6-4.5h-5.8v-6l-5.4.7v5.3h-4.2v4.5h4.2v13.8c-.1 2 .6 4 1.9 5.5 1.4 1.3 3.3 2 5.2 1.9 2 0 4-.6 5.7-1.7l.5-.3-2.2-3.9-.6.3z"/><path id="Path_5383" class="st0" d="M148.89 11.958c-3.2-.1-6.3 1.3-8.4 3.7-3.9 5.7-3.9 13.2 0 18.9 4.3 4.6 11.5 4.9 16.1.6l.7-.7c3.9-5.7 3.9-13.2 0-18.9-2.2-2.4-5.2-3.8-8.4-3.6zm-.1 21.6c-3.7 0-5.5-2.8-5.5-8.5-.2-2.3.4-4.6 1.5-6.6.9-1.3 2.5-2.1 4.1-2 1.6-.1 3.1.6 4 2 1.1 2 1.6 4.3 1.5 6.5 0 5.8-1.8 8.6-5.6 8.6z"/><path id="Path_5384" class="st0" d="M177.69 11.958c-1.6 0-3.2.4-4.5 1.2-.9.5-1.7 1.1-2.3 1.9l-.3-2.6h-4.8v25.2h5.4v-17.4c1.7-2.6 3.3-3.8 5.5-3.8 1.9 0 3.1.7 3.1 4v17.2h5.4v-17.8c.1-2.1-.6-4.2-2-5.8-1.5-1.4-3.5-2.2-5.5-2.1z"/><path id="Path_5385" class="st0" d="M210.99 8.158c-3.3-2.2-7.2-3.3-11.2-3h-7.2v32.5h8.1c3.7.2 7.3-1 10.3-3.3 3.6-3.4 5.5-8.2 5-13.2.1-2.8-.4-5.5-1.4-8.1-.7-1.9-2-3.6-3.6-4.9zm-10 24.8h-2.9v-23.1h2.6c2.3-.2 4.7.5 6.5 1.9 2.3 2.6 3.4 6.1 3 9.5 0 10.5-5.2 11.7-9.2 11.7z"/><path id="Path_5386" class="st0" d="M232.59 11.958c-2.5 0-4.8 1.4-6 3.6l-.3-3.1h-4.7v25.2h5.4v-14.2c.9-4.3 2.5-6.2 5.1-6.2.7 0 1.3.1 1.9.3l.6.2 1-5.3-.6-.1c-.7-.3-1.5-.4-2.4-.4z"/><path id="Path_5387" class="st0" d="M241.79.958c-1.9 0-3.5 1.6-3.5 3.5 0 .9.3 1.8 1 2.4.7.7 1.6 1 2.5 1 1.9.1 3.5-1.4 3.6-3.3.1-1.9-1.4-3.5-3.3-3.6h-.3z"/><path id="Rectangle_2034" class="st0" d="M239.09 12.458h5.4v25.2h-5.4z"/><path id="Path_5388" class="st0" d="M259.49 31.158l-5.8-18.7h-5.9l8.7 25.2h5.9l8.5-25.2h-5.7l-5.7 18.7z"/><path id="Path_5389" class="st0" d="M290.49 15.358c-.9-1.1-2-2-3.3-2.5-1.4-.6-3-.9-4.5-.9-3.1-.1-6 1.4-7.8 3.8-1.9 2.8-2.9 6.1-2.8 9.5-.2 3.4.9 6.7 2.9 9.4 2.1 2.3 5.1 3.6 8.3 3.5 3.2 0 6.3-1.1 8.7-3.1l.5-.4-2.5-3.5-.5.4c-1.7 1.3-3.7 2-5.9 2-3.3 0-5.3-2.2-5.8-6.4h15.2l.1-.6c0-.4.1-1.3.1-2.2.1-3.2-.8-6.4-2.7-9zm-12.7 7.4c.1-1.7.6-3.3 1.5-4.8.8-1 2.1-1.6 3.4-1.5 1.4-.1 2.8.5 3.7 1.6.9 1.4 1.3 3 1.3 4.7h-9.9z"/></g><path id="Path_5390" class="st0" d="M30.888 7.467h-.3c-2.3-6-8.9-8.9-14.9-6.7-3.3 1.2-5.8 3.9-6.9 7.2-5.3.4-9.2 5-8.7 10.3.4 4.9 4.5 8.8 9.5 8.8h6.9v-4.5h-5l8.9-8.9 8.9 8.9h-5.2v4.5h-7.6v4.5h-5.2l8.9 8.9 8.9-8.9h-5v-4.5h7.1c5.4-.2 9.6-4.7 9.5-10.1-.1-5.4-4.5-9.6-9.8-9.5z"/></g></svg>