<svg xmlns="http://www.w3.org/2000/svg" viewBox="0 0 269 40.4" enable-background="new 0 0 269 40.4"><style type="text/css">.st0{fill:#FFFFFF;}</style><g id="Group_3064"><path id="Path_1498" class="st0" d="M62 10.5c-2.2-1.6-5.5-2.4-9.7-2.4h-9.3v32.3h5.8v-11.5h3.5c4.1 0 7.3-.8 9.5-2.4 2.5-1.8 3.8-4.6 3.8-8.2.3-3.1-1.1-6-3.6-7.8zm-2.4 7.8c0 2.3-.6 3.9-1.9 4.8-1.1.8-2.7 1.2-5 1.2h-3.9v-11.7h3.9c4.7 0 6.9 1.9 6.9 5.7z"/><path id="Path_1499" class="st0" d="M81.4 14.8c-1.5 0-3.1.5-4.3 1.4-.8.6-1.4 1.3-1.9 2.2l-.3-3.1h-5v25h5.7v-14.4c.4-1.4 1.8-5.8 5.4-5.8.7 0 1.4.1 2 .3l.7.2 1-5.2-.7-.3c-.9-.2-1.8-.3-2.6-.3z"/><path id="Path_1500" class="st0" d="M96.7 14.3c-3.3-.1-6.6 1.2-8.8 3.7-2.1 2.6-3.2 6-3.1 9.4 0 3.9 1.1 7.1 3.1 9.4 2.3 2.4 5.5 3.7 8.8 3.6 3.3.1 6.5-1.2 8.8-3.7 2.1-2.6 3.2-6 3.1-9.4 0-3.9-1.1-7.1-3-9.4-2.4-2.5-5.6-3.8-8.9-3.6zm0 21.5c-3.9 0-5.9-2.8-5.9-8.5 0-2.9.5-5.1 1.6-6.5 1-1.3 2.6-2.1 4.3-2 1.7-.1 3.3.6 4.3 2s1.6 3.6 1.6 6.5c-.1 5.7-2 8.5-5.9 8.5z"/><path id="Path_1501" class="st0" d="M125.1 34.8c-.9.6-1.9.9-3 .9-1.5 0-2.4-.5-2.4-2.9v-13.6h5.7l.7-4.4h-6.5v-5.9l-5.7.6v5.3h-4v4.4h4v13.7c0 4.8 2.7 7.5 7.4 7.5 2.1 0 4.2-.6 6-1.7l.4-.3-2.3-3.8-.3.2z"/><path id="Path_1502" class="st0" d="M140.3 14.3c-3.3-.2-6.6 1.2-8.8 3.7-2.1 2.6-3.2 6-3.1 9.4 0 3.9 1.1 7.1 3.1 9.4 2.3 2.4 5.5 3.7 8.8 3.6 3.3.1 6.5-1.2 8.8-3.7 2.1-2.6 3.2-6 3.1-9.4 0-3.9-1.1-7.1-3-9.4-2.4-2.5-5.6-3.8-8.9-3.6zm0 21.5c-3.9 0-5.9-2.8-5.9-8.5 0-2.9.5-5.1 1.6-6.5 1-1.3 2.6-2.1 4.3-2 1.7-.1 3.3.6 4.3 2s1.5 3.6 1.5 6.5c0 5.7-1.9 8.5-5.8 8.5z"/><path id="Path_1503" class="st0" d="M170.1 14.8c-2.8 0-5.5 1.1-7.5 3l-.3-2.4h-5v25h5.7v-17.7c.9-1.1 2.9-3.4 5.6-3.4 2.4 0 3.3.9 3.3 3.5v17.6h5.7v-17.9c.1-2-.5-4-1.7-5.6-1.3-1.4-3.3-2.1-5.8-2.1z"/><path id="Path_1504" class="st0" d="M206.2 8.1l-6.6 21.5-6.8-21.5h-7.2l-2.8 32.3h5.6l1.3-16.5c.2-2.3.3-5.1.4-7.2l6.8 20.4h5.3l6.5-20.4c.1 2 .2 4.7.4 7.2l1.5 16.5h5.7l-2.8-32.3h-7.3z"/><path id="Path_1505" class="st0" d="M239.9 33.8v-11.2c0-3.8-1.7-8.4-9.8-8.4-2.9 0-5.9.6-8.6 1.6l-.6.2 1.6 4.2.6-.2c2.1-.7 4.2-1.1 6.4-1.2 3.5 0 4.8 1.1 4.8 4v1.2h-2.6c-3.9 0-7 .7-9.1 2.1-2.1 1.3-3.4 3.7-3.3 6.2 0 4.8 3.5 8 8.8 8 1.5 0 3.1-.3 4.5-.9 1.1-.5 2-1.1 2.8-1.9 1 1.7 2.8 2.7 4.7 2.8l.5.1 1.4-3.9-.6-.2c-1.1-.4-1.5-.8-1.5-2.5zm-5.7-5.7v5.1c-1.1 1.8-3 2.8-5.1 2.9-2.7 0-3.9-1.1-3.9-3.8-.1-1.2.4-2.3 1.4-3 1.1-.8 2.8-1.2 5.3-1.2h2.3z"/><path id="Path_1506" class="st0" d="M249.5 4.3c-1 0-1.9.3-2.7 1-.7.6-1 1.5-1 2.4 0 1.9 1.6 3.5 3.5 3.5h.2c1 0 1.9-.3 2.7-1 .7-.6 1.1-1.5 1.1-2.5-.1-1.9-1.7-3.5-3.6-3.4h-.2z"/><path id="Rectangle_1349" class="st0" d="M246.6 15.4h5.7v25h-5.7z"/><path id="Path_1507" class="st0" d="M267.4 35.3l-.6.2c-.4.2-.9.2-1.4.2s-.9 0-.9-1.3v-29.7l-5.7.6v28.7c-.1 1.7.5 3.5 1.6 4.8 1.1 1 2.6 1.6 4.2 1.5 1.3 0 2.6-.3 3.9-.9l.5-.2-1.6-3.9z"/><path id="Path_1508" class="st0" d="M15.2 0s-12.6-.4-15.2 12.8v9s.1 1 3 2.9 10.3 7.5 12.2 7.5 9.3-5.5 12.2-7.5l3-2.9v-9c-2.6-13.2-15.2-12.8-15.2-12.8zm8.6 17.7h-17.2v-4.9c1.7-6.6 8.6-6.6 8.6-6.6s6.9.1 8.6 6.6v4.9z"/><path id="Path_1509" class="st0" d="M15.2 34.2c-1.2-.1-2.4-.5-3.5-1.2-1.5-1-11.7-7.9-11.7-7.9v13.6c.1 1 .9 1.7 1.9 1.6h26.5c1 .1 1.8-.6 1.9-1.6v-13.6s-10.2 6.9-11.7 7.9c-1 .7-2.2 1.1-3.4 1.2z"/></g></svg>